<svg xmlns="http://www.w3.org/2000/svg" viewBox="0 0 1180 620" width="1180" height="620" font-family="Segoe UI, Helvetica, Arial, sans-serif">
  <defs>
    <marker id="spineArrow" markerWidth="12" markerHeight="12" refX="6" refY="6" orient="auto">
      <path d="M1,1 L11,6 L1,11 Z" fill="#09437a"/>
    </marker>
  </defs>
  <rect x="0" y="0" width="1180" height="620" fill="#ffffff"/>

  <!-- spine -->
  <line x1="60" y1="72" x2="60" y2="548" stroke="#09437a" stroke-width="4" marker-end="url(#spineArrow)"/>
  <text x="26" y="320" font-size="16" fill="#605e5c" transform="rotate(-90 26 320)" text-anchor="middle" letter-spacing="2">DESIGN &amp; DELIVERY FLOW</text>

  <!-- Layer 1 -->
  <g>
    <rect x="110" y="30" width="1010" height="84" rx="10" fill="#ffffff" stroke="#c8c6c4"/>
    <rect x="110" y="30" width="8" height="84" rx="4" fill="#2b88d8"/>
    <circle cx="60" cy="72" r="26" fill="#2b88d8"/>
    <text x="60" y="81" font-size="26" font-weight="700" fill="#ffffff" text-anchor="middle">1</text>
    <text x="160" y="64" font-size="26" font-weight="700" fill="#242424">Requirements</text>
    <text x="160" y="94" font-size="18" fill="#605e5c">SLOs &#183; RTO/RPO &#183; flow criticality</text>
  </g>

  <!-- Layer 2 -->
  <g>
    <rect x="110" y="126" width="1010" height="84" rx="10" fill="#ffffff" stroke="#c8c6c4"/>
    <rect x="110" y="126" width="8" height="84" rx="4" fill="#1c7ad0"/>
    <circle cx="60" cy="168" r="26" fill="#1c7ad0"/>
    <text x="60" y="177" font-size="26" font-weight="700" fill="#ffffff" text-anchor="middle">2</text>
    <text x="160" y="160" font-size="26" font-weight="700" fill="#242424">Architecture</text>
    <text x="160" y="190" font-size="18" fill="#605e5c">dependencies &#183; FMA &#183; SPOFs &#183; redundancy</text>
  </g>

  <!-- Layer 3 -->
  <g>
    <rect x="110" y="222" width="1010" height="84" rx="10" fill="#ffffff" stroke="#c8c6c4"/>
    <rect x="110" y="222" width="8" height="84" rx="4" fill="#106ebe"/>
    <circle cx="60" cy="264" r="26" fill="#106ebe"/>
    <text x="60" y="273" font-size="26" font-weight="700" fill="#ffffff" text-anchor="middle">3</text>
    <text x="160" y="256" font-size="26" font-weight="700" fill="#242424">Infrastructure / Platform</text>
    <text x="160" y="286" font-size="18" fill="#605e5c">regions &#183; availability zones &#183; replication</text>
  </g>

  <!-- Layer 4 -->
  <g>
    <rect x="110" y="318" width="1010" height="84" rx="10" fill="#ffffff" stroke="#c8c6c4"/>
    <rect x="110" y="318" width="8" height="84" rx="4" fill="#0f61a8"/>
    <circle cx="60" cy="360" r="26" fill="#0f61a8"/>
    <text x="60" y="369" font-size="26" font-weight="700" fill="#ffffff" text-anchor="middle">4</text>
    <text x="160" y="352" font-size="26" font-weight="700" fill="#242424">Software / Workload</text>
    <text x="160" y="382" font-size="18" fill="#605e5c">timeouts &#183; retries &#183; circuit breakers &#183; throttling</text>
  </g>

  <!-- Layer 5 -->
  <g>
    <rect x="110" y="414" width="1010" height="84" rx="10" fill="#ffffff" stroke="#c8c6c4"/>
    <rect x="110" y="414" width="8" height="84" rx="4" fill="#0d5391"/>
    <circle cx="60" cy="456" r="26" fill="#0d5391"/>
    <text x="60" y="465" font-size="26" font-weight="700" fill="#ffffff" text-anchor="middle">5</text>
    <text x="160" y="448" font-size="26" font-weight="700" fill="#242424">Operations &amp; Observability</text>
    <text x="160" y="478" font-size="18" fill="#605e5c">safe deploys &#183; monitoring &#183; DR &#183; chaos</text>
  </g>

  <!-- Layer 6 -->
  <g>
    <rect x="110" y="510" width="1010" height="84" rx="10" fill="#ffffff" stroke="#c8c6c4"/>
    <rect x="110" y="510" width="8" height="84" rx="4" fill="#09437a"/>
    <circle cx="60" cy="552" r="26" fill="#09437a"/>
    <text x="60" y="561" font-size="26" font-weight="700" fill="#ffffff" text-anchor="middle">6</text>
    <text x="160" y="544" font-size="26" font-weight="700" fill="#242424">Governance &amp; Enablement</text>
    <text x="160" y="574" font-size="18" fill="#605e5c">Landing Zones &#183; AVM &#183; APRL</text>
  </g>
</svg>
